<?xml version="1.0" encoding="UTF-8" standalone="no"?>
<!-- Created with Inkscape (http://www.inkscape.org/) -->
<svg xmlns:dc="http://purl.org/dc/elements/1.1/" xmlns:cc="http://creativecommons.org/ns#" xmlns:rdf="http://www.w3.org/1999/02/22-rdf-syntax-ns#" xmlns:svg="http://www.w3.org/2000/svg" xmlns="http://www.w3.org/2000/svg" xmlns:sodipodi="http://sodipodi.sourceforge.net/DTD/sodipodi-0.dtd" xmlns:inkscape="http://www.inkscape.org/namespaces/inkscape" width="200" height="200" id="svg2" version="1.1" inkscape:version="0.48.5 r10040" sodipodi:docname="player.svg" inkscape:export-filename="C:\Users\Acer\Desktop\Marc\player.png" inkscape:export-xdpi="44.554455" inkscape:export-ydpi="44.554455">
  <defs id="defs4">
    <inkscape:perspective sodipodi:type="inkscape:persp3d" inkscape:vp_x="0 : 526.18109 : 1" inkscape:vp_y="0 : 1000 : 0" inkscape:vp_z="744.09448 : 526.18109 : 1" inkscape:persp3d-origin="372.04724 : 350.78739 : 1" id="perspective2985"/>
  </defs>
  <sodipodi:namedview id="base" pagecolor="#ffffff" bordercolor="#666666" borderopacity="1.0" inkscape:pageopacity="0.0" inkscape:pageshadow="2" inkscape:zoom="1.4" inkscape:cx="263.57143" inkscape:cy="82.465471" inkscape:document-units="px" inkscape:current-layer="layer1" showgrid="false" inkscape:window-width="1366" inkscape:window-height="705" inkscape:window-x="-8" inkscape:window-y="-8" inkscape:window-maximized="1" showguides="true" inkscape:guide-bbox="true"/>
  <metadata id="metadata7">
    <rdf:RDF>
      <cc:Work rdf:about="">
        <dc:format>image/svg+xml</dc:format>
        <dc:type rdf:resource="http://purl.org/dc/dcmitype/StillImage"/>
        <dc:title/>
      </cc:Work>
    </rdf:RDF>
  </metadata>
  <g inkscape:label="Layer 1" inkscape:groupmode="layer" id="layer1" style="display:inline" transform="translate(0,-852.36218)">
    <path style="fill:#eeeeee;fill-opacity:1;stroke:#c4c4c4;stroke-width:2;stroke-linecap:butt;stroke-linejoin:miter;stroke-miterlimit:4;stroke-opacity:1;stroke-dasharray:none" d="m 55,862.36218 90,0 55,75 -30,75.00002 -16,0 7,-20.00002 -61,-30 -61,30 7,20.00002 -16,0 -30,-75.00002 z" id="path3007" inkscape:connector-curvature="0" sodipodi:nodetypes="cccccccccccc"/>
    <path style="fill:#36bbf5;fill-opacity:1;stroke:none" d="m 18,939.36218 47,-62 70,0 47,62 -21,53.00002 -61,-30.00002 -61,30 z" id="path3791" inkscape:connector-curvature="0" sodipodi:nodetypes="cccccccc"/>
    <path style="fill:#27a0d4;fill-opacity:1;stroke:none" d="m 36,940.36218 6,17 116,0 6,-17 -34,-43 -60,0 z" id="path3797" inkscape:connector-curvature="0" sodipodi:nodetypes="ccccccc"/>
    <path style="fill:#dbdbdb;fill-opacity:1;stroke:#a1a1a1;stroke-width:2;stroke-linecap:butt;stroke-linejoin:miter;stroke-miterlimit:4;stroke-opacity:1;stroke-dasharray:none" d="m 85,852.36218 30,0 30,25 -40,175.00002 -10,0 -40,-175.00002 z" id="path3011" inkscape:connector-curvature="0" sodipodi:nodetypes="ccccccc"/>
    <path style="fill:#544763;fill-opacity:1;stroke:none" d="m 100,962.36218 -15,-10 -8,-35 23,-15 23,15 -8,35 z" id="path3781" inkscape:connector-curvature="0" sodipodi:nodetypes="ccccccc"/>
    <path style="fill:#eeeeee;fill-opacity:1;stroke:none" d="m 85,852.36218 -11,53 26,-16 26,16 -11,-53 z" id="path3795" inkscape:connector-curvature="0" sodipodi:nodetypes="cccccc"/>
  </g>
</svg>